<?xml version="1.0"?>
<svg xmlns="http://www.w3.org/2000/svg" id="prefix__Layer_1" data-name="Layer 1" viewBox="0 0 1127 635"><defs><style>.prefix__cls-1{fill:#d5363e}.prefix__cls-1,.prefix__cls-11,.prefix__cls-12,.prefix__cls-3,.prefix__cls-4,.prefix__cls-6,.prefix__cls-8,.prefix__cls-9{stroke-width:0}.prefix__cls-3{fill:#d1212a}.prefix__cls-4{fill:#d2242d}.prefix__cls-6{fill:#d1232c}.prefix__cls-8{fill:rgba(255,254,254,0)}.prefix__cls-9{fill:#d2252e}.prefix__cls-11{fill:rgba(255,255,255,0)}.prefix__cls-12{fill:#d1222b}</style></defs><g id="prefix__Layer_2" data-name="Layer 2"><path class="prefix__cls-11" d="M0 544V0h906c-.68.35-1.33.92-2.05 1.02-13.54 1.95-26.69 5.44-38.95 11.5-18.99 9.38-34.72 22.85-46.97 40.14-13.93 19.66-22.7 41.41-22.81 65.73-.31 70.66-.17 141.32-.21 211.97 0 4.33-.5 8.73.08 12.98 2.17 15.93 6.26 31.24 13.91 45.62 14.63 27.53 36.44 47.24 65.03 58.8 22.67 9.17 46.53 11.22 70.9 7.33 25.32-4.05 47.97-13.25 67.28-30.62 20.74-18.65 33.54-41.34 37.94-68.87.19-1.22 1.87-3.12 2.89-3.14 13.13-.21 26.26-.14 40.17-.14-1.48 7.45-2.75 14.32-4.22 21.15-7.44 34.58-24.64 63.62-50.43 87.6-13.63 12.67-29.1 22.58-46.16 30.24-17.87 8.02-36.5 13.08-55.86 14.46-13.45.96-27.01.68-40.55-1.69-15.85-2.78-31-7.42-45.39-14.28-25.82-12.31-47.41-30.21-64.21-53.25-22.07-30.26-33.31-64.39-33.38-102.03 0-5.33-2.26-9.84-6.92-12.36-5.56-3.02-11.76-3.71-17.42-.48-5.58 3.18-8.97 8.21-8.66 15.01.23 4.95.75 9.88.98 14.82.74 15.79 4.15 31.04 8.84 46.07 5.49 17.57 13.65 33.84 23.61 49.25 11.78 18.22 26.29 33.99 43.13 47.63 14 11.33 29.25 20.76 45.66 28.06 14.22 6.32 29.03 11.1 44.54 13.39 5.61.83 11.2 1.83 16.63 2.73v63.22H792.06c-1.67 0-3.33.03-5 .02-9.99-.05-20.87 13.23-13.89 23.25 2.61 3.75 6.51 6.61 9.82 9.88H0V589c2.59 6.07 4.33 12.7 7.92 18.1 10.49 15.79 25.7 24.25 44.66 24.74 15.35.39 30.85 2.2 46.01-1.86 12.88-3.44 24.07-9.55 31.91-20.9 5.26-7.61 7.88-16.05 9.01-25.59h5.51c15.99-.03 31.98.07 47.97-.14 13.45-.18 24.52-9.79 24.84-24.4.49-22.64.06-45.3.02-67.95-.28-.39-.56-.78-.84-1.18h-30.38v5.58c0 17.16-.02 34.31 0 51.47.02 10.61.89 10.28-10.32 10.22-11.94-.07-23.87-.02-36.35-.02v-67.21h-31.25c0 2.24.01 4.21 0 6.17-.23 27.62.06 55.27-.91 82.86-.49 14.07-7.11 22.86-21.48 25.73-8.31 1.66-17.09 1.21-25.67 1.31-14.95.17-25.53-8.35-28.47-23.11-.95-4.78-.96-9.78-1.01-14.69-.13-11.93-.04-23.86-.04-35.79-9.42-1.08-17.96-1.32-24.53 6.48-1.76 2.09-4.38 3.45-6.61 5.15zm511-224.84l-.84.84v18.91c21.09 0 41.57-.1 62.04.04 11.39.08 21.79-8.53 21.89-21.82.07-10.75-.31-21.53-1.18-32.24-.98-12.1-6.83-21.82-16.82-28.72-14.05-9.69-29.65-10.75-46.09-7.75 0 5.07.12 9.89-.04 14.7-.11 3.19 1.37 4.05 4.24 3.92 3.49-.15 7.01-.32 10.49-.04 10.96.89 20.05 6.72 23.42 16.74 3.05 9.09 1.54 18.33 1.85 27.51.25 7.24-.38 7.69-7.5 7.72-17.15.07-34.3.13-51.45.19zm-68-.02c-13.16-.1-26.32 0-39.46-.45-3.21-.11-6.62-1.5-9.48-3.12-9.43-5.31-14.39-19.75-10.94-30.55 4.22-13.21 10.13-18.17 23.97-17.96 6.83.1 13.66.83 20.69 1.29v-18.12c-10.54-2.81-21-3.69-32.01-2.45-23.72 2.68-37.82 23.03-37.71 44.24.05 9.03 3.57 17.14 8.01 24.86-.03.65-.07 1.3-.1 1.96-12.16.02-24.31.05-36.47.06-9.27 0-9.36-.1-9.36-9.51V244c-6.33.29-12.39-1.68-16.81 3.71-2.65 3.24-5.77 2.11-8.89 1.08-13.88-4.58-27.19-3.81-39.36 4.84-21.12 15.03-25.57 44.77-13.57 66.16 7.88 14.06 20.08 22.06 36.87 21.16 8.59-.46 16.12-4.02 22.13-8.23 5.35 2.25 10.08 5.93 14.85 5.99 38.3.45 76.61.22 114.91.17 1.47 0 3.69.31 4.29-.48 4.17-5.55 11.4-9.68 9.28-18.41-.28-.29-.56-.57-.84-.86zM307.02 556v-66.11h-31.83v5.71c0 23.83.08 47.66-.06 71.49-.03 5.77-.26 11.65-1.38 17.27-1.47 7.36-5.4 13.13-12.41 17.03-9.96 5.55-20.33 5.21-31.98 3.71.73 4.48.62 8.98 2.29 12.68 1.7 3.77 4.97 6.92 7.86 10.05 1.57 1.7 3.69 3.8 5.74 4.02 12.46 1.33 24.18-1.85 34.97-7.81 13.85-7.65 22.74-19.15 24.84-35.26.53-4.04 2.51-5.43 6.88-5.4 31.16.21 62.32-.05 93.48.13 9.44.06 17.76-1.82 24.13-9.85 1.24 1.56 2.37 2.77 3.23 4.14 2.56 4.07 5.69 6.02 10.96 5.79 11.81-.51 23.66-.37 35.49-.09 9.14.21 17.01-2.13 23.68-10.22 1.84 2.25 3.61 4.2 5.14 6.33 2.13 2.95 4.82 4.06 8.5 4 14.16-.2 28.32-.06 42.48-.25 3.08-.04 6.34-.48 9.2-1.59 11.81-4.56 16.47-14.02 16.5-26.03.1-37.83.04-75.65.04-113.48v-4.77h-31.56v5.13c0 36.16-.07 72.32.08 108.48.02 4.49-1.14 6.27-5.9 6.1-9.15-.33-18.33-.2-27.49-.05-3.84.06-7.67.64-12.07 1.03v-68.2H476.3v59.83c0 6.72-.59 7.29-7.52 7.29-9.5 0-19-.05-28.49-.07h-5.49c0-7.24.24-13.74-.04-20.22-.93-21.17-13.78-38.72-33.94-45.55-18.39-6.23-37.11-4.03-55.54.95-1.07.29-2.5 1.89-2.53 2.92-.22 7.44-.12 14.9-.12 21.69 10.84-.97 21.14-2.77 31.39-2.56 11.53.24 22 4.78 26.5 16.31 2.29 5.87 2.05 12.83 2.39 19.33.37 7.18.08 7.2-6.9 7.2l-80.98.03-8.02-1.11zm306.11 32.33c10.54 2.88 18.54-.79 25.35-8.02.55-.58 1.18-1.14 1.87-1.51 3.21-1.68 3.94-4.28 3.93-7.81-.12-42.83-.08-85.66-.08-128.49v-5.06h-31.08v150.89zm6.41-388.12v142.96c8.15 2.43 14.27-.54 19.86-6 2.39-2.33 3.82-4.43 3.81-8-.14-41.29-.09-82.59-.09-123.88v-5.09h-23.58zm-129.89-.05h-23.56v143.27c8.08 2.51 13.69-1.33 19.4-5.99 3.36-2.74 4.25-5.58 4.24-9.67-.13-40.64-.08-81.29-.08-121.93v-5.69zm156.68 187.81c-1.84 0-3.71.24-5.48-.05-4.11-.68-8.43-1-12.18-2.61-3.53-1.52-4.94-7.9-3.42-11.83 1.43-3.73 4.25-5.05 8.2-4.52 2.08.28 4.22.05 6.31.05.48-10.48 2.07-10.2-9.31-11.23-14.73-1.33-22.56 16.07-16.38 26.21.62 1.02.72 2.35 1.2 4.06h-7.07v9.66h27.57c8.55 0 9.57-.92 10.57-9.72zM218.01 609.08c1.42-8.95-6.27-15.78-15.35-16-8.21-.2-15.66 7.1-15.66 15.12 0 9.2 6.78 16.64 14.99 16.78 7.94.13 17.51-6.07 16.02-15.89zm289-.23c1.62-8.29-6.36-15.76-15.58-15.78-8.68-.01-15.44 7.17-15.46 16.27-.02 7.95 7.22 15.59 14.76 15.6 10.17 0 16.27-6.02 16.28-16.09zm-325.01.1c-.2-8.58-5.75-15.59-15.9-15.86-8.41-.22-16.19 7.47-16.11 15.63.07 7.31 7.53 16.46 13.27 16.28 12.2-.39 18.75-6.01 18.74-16.05zM85 503.06c.02-9.25-6.62-15.72-16.36-15.95-7.84-.19-15.32 7.61-15.72 15.7-.42 8.55 8.71 16.17 13.73 16.12 11.69-.1 18.33-6.02 18.35-15.87zm192.7-296.07c-7.95 0-12.75 4.61-12.7 12.19.04 5.78 6.56 12.76 11.99 12.82 7.45.09 13.02-5.97 13.03-14.17 0-6.95-4.42-10.85-12.32-10.85zm265.66 0c-7.56 0-13.46 5.36-13.36 12.13.08 5.56 7.36 12.82 12.91 12.88 7.18.08 12.11-5.95 12.1-14.81 0-6.32-4.45-10.21-11.65-10.2zm-235.94 0c-7.8.08-12.16 4.65-12.57 12.01-.33 6.1 6.9 13.06 12.41 12.95 6.44-.13 13.18-6.97 12.78-13.13-.37-5.65-4-13.35-12.63-11.84z"/><path class="prefix__cls-8" d="M940 0h187v332c-.62-.9-1.45-1.71-1.84-2.7-2.67-6.95-8.44-9.87-15.12-9.95-24.99-.31-49.99-.24-74.98-.05-8.93.07-15.53 7.39-16.19 16.16-.52 7-1.48 14.02-2.91 20.9-4.8 23.09-18.4 40.08-37.91 52.51-20.96 13.35-44.47 16.27-68.47 13.9-21.16-2.1-39.62-11.3-54.61-26.69-17.18-17.63-26.92-38.44-26.89-63.47.08-69.65.14-139.29-.05-208.94-.05-18.43 5.56-34.85 15.72-49.86 11.64-17.19 27.24-29.35 47.08-35.86 16.57-5.43 33.53-4.82 50.48-2.92 23.13 2.6 41.68 13.91 56.56 31.36 14.33 16.81 20.85 36.83 21.04 58.58.41 45.48.13 90.97.13 136.46 0 2-.09 4.01.12 5.99.93 8.46 9.87 16.55 17.09 15.58 9.13-1.23 15.88-8.56 15.83-17.98-.28-50.59-.53-101.18-1.19-151.76-.22-16.79-5.61-32.57-13.58-47.14-16.2-29.62-40.3-50.14-72.87-60.05C956.43 3.63 948.16 2 940 0zm-80.01 119.66c.06 4 5.61 9.56 9.3 9.34 3.9-.23 8.8-5.53 8.61-9.32-.24-4.81-4.13-8.71-8.73-8.75-4.48-.04-9.25 4.5-9.18 8.72zm.01 137.8c-.07 4.06 5.25 9.64 9.11 9.54 4.26-.11 8.86-4.83 8.81-9.05-.07-4.97-3.73-8.55-9.12-8.91-3.64-.24-8.72 4.63-8.79 8.42zm8.95 91.55c5.05.03 8.73-3.18 8.96-7.82.24-4.79-3.82-9.1-8.71-9.25-4.33-.13-9.19 4.4-9.21 8.58-.02 4.31 4.37 8.47 8.96 8.49zm37.08-50.47c-.13-6.29-2.33-8.6-8.11-8.54-4.91.05-9.02 4.04-8.93 8.64.08 4.01 4.6 8.41 8.59 8.38 5.68-.05 8.57-2.94 8.45-8.47zm57.98-75.78c-.03-5.76-2.31-7.78-8.77-7.76-4.94.01-8.32 3.36-8.24 8.16.07 3.94 4.73 8.82 8.46 8.85 5.22.05 8.58-3.59 8.55-9.25zm-95.81-66.77c5.66.14 9.49-3.34 9.71-8.81.18-4.51-3.22-8.03-7.93-8.18-5.36-.18-9.71 3.32-9.99 8.04-.22 3.75 4.46 8.86 8.2 8.95zm66.81 54.97c.05-5.93-1.78-7.92-7.37-7.97-5.97-.06-9.5 2.77-9.65 7.71-.12 4.29 4.24 9.17 8.32 9.31 5.1.17 8.64-3.51 8.69-9.05zm-66.23.17c5.11.04 8.96-3.71 9.13-8.89.13-4.07-4.29-8.38-8.62-8.4-4.48-.02-9.19 4.28-9.3 8.49-.1 4.15 4.51 8.77 8.79 8.8zm.49 148.86c-4.83-.03-9.41 4.03-9.27 8.2.14 4.01 4.7 8.73 8.46 8.75 5.67.03 9.54-3.67 9.46-9.03-.07-4.76-3.48-7.89-8.65-7.92zm36.76-89.6c.11-5.38-2.76-8.25-8.43-8.4-3.96-.1-8.67 4.6-8.61 8.61.05 3.63 4.89 9.11 8.3 9.38 4.72.38 8.62-3.89 8.74-9.59zm0-55.09c0-5.71-2.4-8.25-7.89-8.3-4.67-.05-9.01 3.89-9.15 8.3-.13 4.33 4.35 8.73 8.94 8.78 5.11.06 8.09-3.18 8.1-8.78zm0-137.92c-.13-6.11-2.48-8.51-8.22-8.39-4.85.1-8.97 4.17-8.82 8.71.13 4.03 4.93 8.79 8.82 8.24 5.73-.81 9.42-3.1 8.22-8.56zm0 248.46c.03-5.93-1.78-7.82-7.5-7.84-5.59-.02-9.66 3.46-9.53 8.14.11 3.89 4.84 8.84 8.48 8.87 5.14.05 8.52-3.58 8.55-9.17zM877.07 92.42c0-6.51-1.63-8.39-7.33-8.43-6.12-.04-9.66 2.84-9.75 7.92-.07 3.99 4.85 9.15 8.66 9.09 5.23-.08 8.41-3.32 8.41-8.58zm28.96 12.78c.03-6.37-1.67-8.2-7.6-8.2-5.42 0-9.35 3.29-9.43 7.9-.07 4.19 4.71 9.2 8.69 9.11 4.97-.12 8.31-3.64 8.34-8.81zm0 55.02c-.09-6.14-2.27-8.3-8.3-8.23-4.88.06-8.92 4.09-8.73 8.72.16 3.93 4.95 8.43 8.86 8.31 5.34-.16 8.26-3.3 8.18-8.8zm20.83 180.77c-5.11.01-8.77 3.24-8.87 7.82-.08 4.18 4.53 9.18 8.47 9.19 5.29.01 8.56-3.5 8.54-9.14-.03-5.65-2.33-7.88-8.15-7.87zM868.48 277c-4.22.03-8.49 4.29-8.49 8.45 0 3.93 4.84 8.71 8.69 8.59 5.32-.17 9.46-4.31 9.23-9.23-.22-4.55-4.2-7.85-9.43-7.81zm8.6 36.43c.01-6.56-1.61-8.41-7.4-8.44-6.08-.03-9.76 3.05-9.68 8.08.07 3.97 5.16 8.99 9.05 8.92 4.83-.08 8.01-3.49 8.02-8.57zm57.93 8.32c-.08-6.23-2.63-8.84-8.55-8.76-4.45.06-8.45 4.06-8.46 8.46-.01 4.34 4.53 8.72 8.91 8.59 5.31-.16 8.17-3.08 8.1-8.3zM869.4 166.98c-5.78.03-9.22 2.89-9.4 7.81-.13 3.67 5.23 9.19 8.95 9.21 4.37.02 9.09-4.85 8.97-9.25-.14-5.08-3.13-7.8-8.52-7.77zm28.53 12.99c-5.15.02-8.9 3.19-8.93 7.54-.03 4.24 5.22 9.65 9.19 9.49 5.03-.21 7.87-3.97 7.85-10.41-.02-4.9-2.15-6.64-8.11-6.62zm8.1 201.54c-.06-6.34-2.15-8.22-8.07-8.6-5.97-.38-8.33 3.87-8.9 8.41-.41 3.23 4.51 8.62 7.46 8.67 6.25.11 9.56-2.85 9.5-8.48zm0-248.93c0-5.54-3.06-8.76-8.2-8.68-4.47.07-8.98 4.59-8.83 8.84.16 4.41 4.51 8.33 9.19 8.27 5.24-.07 7.85-2.87 7.84-8.42zm0 110.36c-.02-5.88-2.08-7.94-7.97-7.94-5.58 0-9.18 3.24-9.06 8.15.08 3.36 4.73 8.78 7.58 8.84 6.19.13 9.47-3.01 9.45-9.05zm28.98-4.35c-.01-5.67-2.84-8.68-8.21-8.74-4.41-.05-8.91 4.45-8.81 8.81.1 4.3 4.31 8.37 8.63 8.34 5.7-.04 8.4-2.75 8.38-8.41zm-28.99 115.26c.03-5.7-2.78-8.87-7.92-8.97-4.41-.08-9.09 4.32-9.11 8.58-.02 4.16 4.24 8.49 8.4 8.54 5.82.07 8.6-2.56 8.63-8.15zm21.08-233.86c-5.4-.03-9.14 3.29-9.1 8.08.03 3.47 4.44 8.87 7.23 8.83 6.43-.08 9.77-3.09 9.78-8.81.01-5.76-2.24-8.07-7.91-8.1zm36.91-7.21c.04-6.07-2.64-8.81-8.6-8.78-4.41.02-8.47 4.16-8.41 8.58.06 4.35 4.3 8.47 8.78 8.53 5.03.07 8.2-3.14 8.23-8.33zm-29-11.96c.06-5.97-2.49-8.77-8.02-8.82-4.84-.05-9.01 3.9-9 8.51.02 4.25 4.3 8.45 8.78 8.59 4.93.16 8.19-3.12 8.24-8.28zm29 233.04c.05-5.95-2.69-8.83-8.45-8.86-4.45-.02-8.49 3.92-8.57 8.36-.08 4.19 4.15 8.65 8.3 8.75 5.48.13 8.67-2.89 8.72-8.25zM877.07 230.8c-.06-6.93-1.79-8.81-8.11-8.81-4.66 0-8.96 3.86-8.96 8.03 0 3.59 4.79 9.06 7.83 8.95 6.31-.24 9.28-2.86 9.24-8.17z"/><path class="prefix__cls-12" d="M940 0c8.16 2 16.43 3.63 24.45 6.07 32.56 9.9 56.67 30.42 72.87 60.05 7.96 14.57 13.35 30.35 13.58 47.14.67 50.58.91 101.17 1.19 151.76.05 9.42-6.69 16.74-15.83 17.98-7.22.98-16.17-7.12-17.09-15.58-.22-1.98-.12-3.99-.12-5.99 0-45.49.28-90.98-.13-136.46-.2-21.75-6.71-41.77-21.04-58.58-14.88-17.45-33.43-28.76-56.56-31.36-16.95-1.9-33.91-2.51-50.48 2.92-19.85 6.51-35.45 18.67-47.08 35.86-10.16 15.01-15.77 31.43-15.72 49.86.19 69.65.13 139.29.05 208.94-.03 25.03 9.71 45.84 26.89 63.47 14.99 15.38 33.45 24.59 54.61 26.69 24 2.38 47.51-.55 68.47-13.9 19.51-12.43 33.11-29.42 37.91-52.51 1.43-6.87 2.39-13.9 2.91-20.9.66-8.78 7.26-16.1 16.19-16.16 24.99-.19 49.99-.26 74.98.05 6.69.08 12.45 3 15.12 9.95.38.99 1.21 1.81 1.84 2.7v21c-.67 1.4-1.68 2.75-1.94 4.22-1.65 9.26-2.61 18.68-4.76 27.82-5.03 21.36-13.37 41.43-25.34 59.88-12.09 18.63-26.55 35.1-43.95 49.04-14.39 11.53-29.81 21.34-46.81 28.34-10.38 4.28-21.21 7.6-32.05 10.61-9.27 2.58-18.83 4.1-28.42 6.12v62.82h5.76c36.33 0 72.66-.03 108.99.03 8.35.01 15.87 5.99 16.52 12.81 1.01 10.66-3 17.2-11.87 19.37-91.82-.02-183.65-.04-275.47-.02-1.22 0-2.44.63-3.65.96h-1c-3.31-3.27-7.21-6.12-9.82-9.88-6.98-10.03 3.9-23.3 13.89-23.25 1.67 0 3.33-.02 5-.02H903.43v-63.22c-5.44-.9-11.02-1.9-16.63-2.73-15.5-2.29-30.32-7.06-44.54-13.39-16.41-7.3-31.66-16.72-45.66-28.06-16.85-13.64-31.35-29.41-43.13-47.63-9.96-15.41-18.12-31.69-23.61-49.25-4.7-15.03-8.11-30.28-8.84-46.07-.23-4.95-.75-9.88-.98-14.82-.31-6.8 3.08-11.83 8.66-15.01 5.66-3.23 11.86-2.54 17.42.48 4.65 2.53 6.91 7.03 6.92 12.36.07 37.64 11.31 71.77 33.38 102.03 16.8 23.04 38.39 40.94 64.21 53.25 14.39 6.86 29.54 11.5 45.39 14.28 13.54 2.38 27.1 2.65 40.55 1.69 19.37-1.38 38-6.44 55.86-14.46 17.06-7.66 32.53-17.57 46.16-30.24 25.79-23.98 42.99-53.02 50.43-87.6 1.47-6.83 2.74-13.7 4.22-21.15-13.91 0-27.04-.07-40.17.14-1.01.02-2.69 1.92-2.89 3.14-4.4 27.52-17.2 50.21-37.94 68.87-19.32 17.37-41.97 26.58-67.28 30.62-24.37 3.89-48.22 1.84-70.9-7.33-28.59-11.56-50.4-31.27-65.03-58.8-7.64-14.38-11.74-29.69-13.91-45.62-.58-4.25-.08-8.65-.08-12.98.04-70.66-.11-141.32.21-211.97.11-24.32 8.88-46.07 22.81-65.73 12.25-17.29 27.98-30.75 46.97-40.14 12.26-6.06 25.4-9.55 38.95-11.5.72-.1 1.37-.67 2.05-1.02h4c3.51.33 7.02.95 10.53.91 5.49-.07 10.98-.58 16.47-.91h3z"/><path class="prefix__cls-11" d="M1063.13 634.06c8.87-2.17 12.88-8.71 11.87-19.37-.65-6.82-8.17-12.8-16.52-12.81-36.33-.06-72.66-.03-108.99-.03h-5.76v-62.82c9.58-2.02 19.15-3.54 28.42-6.12 10.83-3.01 21.67-6.33 32.05-10.61 17-7 32.42-16.82 46.81-28.34 17.4-13.94 31.87-30.41 43.95-49.04 11.97-18.45 20.31-38.52 25.34-59.88 2.15-9.14 3.12-18.55 4.76-27.82.26-1.47 1.27-2.82 1.94-4.22v282h-64c-.05-.33 0-.64.13-.94z"/><path class="prefix__cls-12" d="M0 544c2.23-1.7 4.85-3.06 6.61-5.15 6.57-7.8 15.11-7.56 24.53-6.48 0 11.93-.09 23.86.04 35.79.06 4.9.06 9.91 1.01 14.69 2.94 14.75 13.52 23.28 28.47 23.11 8.57-.1 17.35.35 25.67-1.31 14.37-2.87 20.99-11.66 21.48-25.73.97-27.6.68-55.24.91-82.86.02-1.96 0-3.93 0-6.17h31.25v67.21c12.48 0 24.41-.05 36.35.02 11.22.06 10.34.39 10.32-10.22-.02-17.16 0-34.31 0-51.47v-5.58h30.38c.28.39.56.78.84 1.18.04 22.65.47 45.31-.02 67.95-.32 14.61-11.39 24.22-24.84 24.4-15.99.21-31.98.11-47.97.14h-5.51c-1.13 9.54-3.75 17.98-9.01 25.59-7.84 11.35-19.03 17.46-31.91 20.9-15.16 4.05-30.67 2.25-46.01 1.86-18.96-.48-34.17-8.95-44.66-24.74C4.33 601.7 2.59 595.07 0 589v-45z"/><path class="prefix__cls-1" d="M1063.13 634.06c-.13.3-.17.62-.13.94H784c1.22-.33 2.44-.96 3.65-.96 91.82-.03 183.65 0 275.47.02z"/><path d="M937 0c-5.49.33-10.98.84-16.47.91-3.5.04-7.02-.58-10.53-.91h27z" fill="#d8434b" stroke-width="0"/><path class="prefix__cls-3" d="M315.04 557.11l80.98-.03c6.98 0 7.26-.02 6.9-7.2-.33-6.5-.1-13.46-2.39-19.33-4.5-11.53-14.97-16.08-26.5-16.31-10.25-.21-20.55 1.59-31.39 2.56 0-6.8-.1-14.25.12-21.69.03-1.03 1.46-2.63 2.53-2.92 18.42-4.98 37.14-7.18 55.54-.95 20.17 6.83 33.02 24.39 33.94 45.55.28 6.48.04 12.98.04 20.22h5.49c9.5.02 19 .06 28.49.07 6.93 0 7.52-.57 7.52-7.29.01-17 0-33.99 0-50.99v-8.84h31.53v68.2c4.4-.39 8.23-.97 12.07-1.03 9.16-.15 18.34-.28 27.49.05 4.76.17 5.92-1.61 5.9-6.1-.15-36.16-.08-72.32-.08-108.48v-5.13h31.56v4.77c0 37.83.07 75.65-.04 113.48-.03 12.01-4.69 21.47-16.5 26.03-2.85 1.1-6.11 1.54-9.2 1.59-14.16.2-28.32.05-42.48.25-3.68.05-6.37-1.05-8.5-4-1.53-2.12-3.3-4.08-5.14-6.33-6.67 8.09-14.54 10.43-23.68 10.22-11.83-.27-23.68-.42-35.49.09-5.27.23-8.4-1.73-10.96-5.79-.86-1.37-2-2.57-3.23-4.14-6.37 8.03-14.69 9.91-24.13 9.85-31.16-.19-62.32.08-93.48-.13-4.37-.03-6.36 1.36-6.88 5.4-2.1 16.11-10.99 27.61-24.84 35.26-10.79 5.96-22.51 9.14-34.97 7.81-2.05-.22-4.17-2.32-5.74-4.02-2.89-3.13-6.16-6.27-7.86-10.05-1.66-3.7-1.56-8.19-2.29-12.68 11.65 1.51 22.02 1.84 31.98-3.71 7-3.9 10.94-9.67 12.41-17.03 1.13-5.63 1.35-11.5 1.38-17.27.14-23.83.06-47.66.06-71.49v-5.71h31.83v66.11c2.2 3.79 5.17 2.01 8.02 1.11z"/><path class="prefix__cls-12" d="M443.85 320c2.12 8.73-5.1 12.86-9.28 18.41-.6.79-2.82.48-4.29.48-38.3.05-76.61.28-114.91-.17-4.77-.06-9.5-3.73-14.85-5.99-6.01 4.22-13.54 7.77-22.13 8.23-16.79.9-28.99-7.1-36.87-21.16-12-21.4-7.55-51.14 13.57-66.16 12.17-8.66 25.47-9.43 39.36-4.84 3.12 1.03 6.24 2.16 8.89-1.08 4.41-5.39 10.48-3.42 16.81-3.71v65.39c0 9.41.09 9.52 9.36 9.51 12.16 0 24.31-.04 36.47-.06.38-.16.76-.33 1.14-.49l-1.04-1.47c-4.44-7.72-7.96-15.83-8.01-24.86-.11-21.2 13.99-41.56 37.71-44.24 11.01-1.24 21.47-.36 32.01 2.45v18.12c-7.03-.46-13.85-1.19-20.69-1.29-13.84-.2-19.76 4.76-23.97 17.96-3.45 10.8 1.51 25.24 10.94 30.55 2.86 1.61 6.27 3.01 9.48 3.12 13.14.44 26.31.34 39.46.45.28.29.56.57.84.86zm-147.52-26.58c0-6.99.1-13.99-.09-20.97-.04-1.37-.95-3.72-1.84-3.92-8.38-1.9-16.91-3.64-24.64 2.02-8.47 6.21-10.9 15.02-10.84 25.1.1 15.57 12.63 32.63 33.87 23.71 2.59-1.09 3.64-2.21 3.58-4.97-.15-6.99-.05-13.98-.05-20.97z"/><path class="prefix__cls-3" d="M613.13 588.33V437.44h31.08v5.06c0 42.83-.04 85.66.08 128.49 0 3.53-.72 6.13-3.93 7.81-.7.37-1.33.93-1.87 1.51-6.81 7.23-14.81 10.9-25.35 8.02z"/><path class="prefix__cls-12" d="M511 319.16c17.15-.06 34.3-.13 51.45-.19 7.12-.03 7.74-.48 7.5-7.72-.31-9.18 1.2-18.42-1.85-27.51-3.36-10.03-12.46-15.85-23.42-16.74-3.47-.28-6.99-.12-10.49.04-2.87.13-4.36-.74-4.24-3.92.17-4.81.04-9.63.04-14.7 16.45-3 32.05-1.94 46.09 7.75 9.99 6.89 15.84 16.62 16.82 28.72.87 10.71 1.26 21.5 1.18 32.24-.09 13.28-10.5 21.89-21.89 21.82-20.47-.14-40.95-.04-62.04-.04V320l.84-.84z"/><path class="prefix__cls-3" d="M619.54 200.21h23.58v5.09c0 41.29-.05 82.59.09 123.88.01 3.57-1.42 5.66-3.81 8-5.59 5.46-11.72 8.43-19.86 6V200.22zM489.65 200.16v5.69c0 40.64-.05 81.29.08 121.93.01 4.09-.88 6.94-4.24 9.67-5.71 4.65-11.32 8.5-19.4 5.99V200.17h23.56z"/><path class="prefix__cls-12" d="M646.33 387.97c-1 8.8-2.02 9.72-10.57 9.72h-27.57v-9.66h7.07c-.49-1.71-.59-3.04-1.2-4.06-6.18-10.14 1.65-27.54 16.38-26.21 11.38 1.03 9.79.75 9.31 11.23-2.09 0-4.23.23-6.31-.05-3.95-.53-6.76.79-8.2 4.52-1.51 3.94-.11 10.31 3.42 11.83 3.75 1.61 8.07 1.94 12.18 2.61 1.78.29 3.64.05 5.48.05z"/><path class="prefix__cls-4" d="M218.01 609.08c1.49 9.82-8.08 16.02-16.02 15.89-8.21-.13-15-7.58-14.99-16.78 0-8.01 7.46-15.32 15.66-15.12 9.08.23 16.76 7.06 15.35 16zM507.01 608.85c-.01 10.07-6.11 16.09-16.28 16.09-7.54 0-14.78-7.65-14.76-15.6.02-9.1 6.78-16.29 15.46-16.27 9.21.02 17.2 7.49 15.58 15.78z"/><path class="prefix__cls-6" d="M182 608.95c.02 10.04-6.54 15.65-18.74 16.05-5.73.19-13.2-8.97-13.27-16.28-.08-8.16 7.7-15.85 16.11-15.63 10.15.27 15.7 7.28 15.9 15.86zM85 503.06c-.02 9.85-6.65 15.76-18.35 15.87-5.03.04-14.15-7.58-13.73-16.12.39-8.09 7.88-15.88 15.72-15.7 9.74.23 16.38 6.7 16.36 15.95z"/><path class="prefix__cls-4" d="M277.7 206.99c7.89 0 12.32 3.9 12.32 10.85 0 8.2-5.58 14.25-13.03 14.17-5.43-.06-11.95-7.04-11.99-12.82-.05-7.58 4.76-12.19 12.7-12.19zM543.36 206.99c7.19 0 11.64 3.89 11.65 10.2.01 8.85-4.92 14.89-12.1 14.81-5.56-.06-12.84-7.33-12.91-12.88-.09-6.77 5.8-12.12 13.36-12.13z"/><path class="prefix__cls-6" d="M307.42 206.99c8.63-1.52 12.26 6.19 12.63 11.84.4 6.16-6.35 12.99-12.78 13.13-5.51.11-12.74-6.85-12.41-12.95.4-7.37 4.77-11.94 12.57-12.01z"/><path d="M315.04 557.11c-2.85.9-5.82 2.67-8.02-1.11l8.02 1.11z" fill="#fcf1f2" stroke-width="0"/><path d="M366.07 316.88l1.04 1.47c-.38.16-.76.33-1.14.49.03-.65.07-1.3.1-1.96z" fill="#f8dedf" stroke-width="0"/><path class="prefix__cls-1" d="M511 319.16l-.84.84.84-.84z"/><path d="M217.87 491.01c-.28-.39-.56-.78-.84-1.18.28.39.56.78.84 1.18z" fill="#d73d45" stroke-width="0"/><path class="prefix__cls-1" d="M443.85 320c-.28-.29-.56-.57-.84-.86.28.29.56.57.84.86z"/><path class="prefix__cls-9" d="M859.99 119.66c-.07-4.23 4.71-8.76 9.18-8.72 4.6.04 8.5 3.94 8.73 8.75.19 3.79-4.71 9.09-8.61 9.32-3.7.22-9.24-5.35-9.3-9.34z"/><path class="prefix__cls-4" d="M860 257.46c.07-3.79 5.16-8.66 8.79-8.42 5.39.35 9.06 3.93 9.12 8.91.06 4.21-4.54 8.94-8.81 9.05-3.86.1-9.18-5.48-9.11-9.54z"/><path class="prefix__cls-9" d="M868.95 349.01c-4.59-.02-8.98-4.18-8.96-8.49.02-4.18 4.89-8.71 9.21-8.58 4.88.15 8.94 4.46 8.71 9.25-.23 4.64-3.91 7.85-8.96 7.82zM906.03 298.54c.12 5.53-2.77 8.42-8.45 8.47-3.99.03-8.5-4.37-8.59-8.38-.1-4.6 4.02-8.59 8.93-8.64 5.78-.06 7.98 2.26 8.11 8.54z"/><path class="prefix__cls-4" d="M964.01 222.76c.03 5.66-3.33 9.3-8.55 9.25-3.74-.03-8.4-4.91-8.46-8.85-.08-4.8 3.3-8.15 8.24-8.16 6.46-.02 8.74 2 8.77 7.76z"/><path class="prefix__cls-9" d="M868.2 155.99c-3.75-.09-8.43-5.2-8.2-8.95.28-4.72 4.63-8.22 9.99-8.04 4.71.15 8.11 3.67 7.93 8.18-.22 5.47-4.05 8.95-9.71 8.81z"/><path class="prefix__cls-4" d="M935.01 210.96c-.05 5.54-3.58 9.22-8.69 9.05-4.08-.14-8.45-5.02-8.32-9.31.14-4.94 3.68-7.77 9.65-7.71 5.58.06 7.42 2.05 7.37 7.97z"/><path class="prefix__cls-9" d="M868.78 211.13c-4.27-.03-8.89-4.66-8.79-8.8.1-4.2 4.82-8.5 9.3-8.49 4.32.02 8.75 4.33 8.62 8.4-.17 5.17-4.02 8.92-9.13 8.89zM869.27 359.99c5.17.03 8.58 3.16 8.65 7.92.08 5.37-3.8 9.06-9.46 9.03-3.75-.02-8.32-4.74-8.46-8.75-.14-4.18 4.44-8.23 9.27-8.2zM906.03 270.39c-.12 5.7-4.02 9.97-8.74 9.59-3.4-.27-8.25-5.76-8.3-9.38-.05-4.01 4.65-8.71 8.61-8.61 5.66.15 8.54 3.02 8.43 8.4zM906.03 215.3c0 5.6-2.99 8.84-8.1 8.78-4.59-.05-9.07-4.45-8.94-8.78.13-4.41 4.47-8.35 9.15-8.3 5.48.05 7.89 2.59 7.89 8.3zM906.03 77.38c1.2 5.46-2.49 7.76-8.22 8.56-3.89.55-8.69-4.22-8.82-8.24-.14-4.54 3.98-8.61 8.82-8.71 5.73-.12 8.09 2.28 8.22 8.39z"/><path class="prefix__cls-4" d="M906.03 325.84c-.03 5.59-3.4 9.21-8.55 9.17-3.64-.03-8.37-4.98-8.48-8.87-.13-4.69 3.94-8.17 9.53-8.14 5.72.02 7.53 1.92 7.5 7.84zM877.07 92.42c0 5.26-3.18 8.5-8.41 8.58-3.81.06-8.73-5.1-8.66-9.09.09-5.09 3.62-7.96 9.75-7.92 5.7.04 7.34 1.92 7.33 8.43zM906.03 105.2c-.03 5.16-3.37 8.69-8.34 8.81-3.98.09-8.76-4.92-8.69-9.11.08-4.61 4.01-7.91 9.43-7.9 5.93 0 7.63 1.84 7.6 8.2zM906.03 160.22c.08 5.5-2.84 8.64-8.18 8.8-3.9.12-8.69-4.38-8.86-8.31-.19-4.63 3.85-8.66 8.73-8.72 6.03-.07 8.21 2.09 8.3 8.23zM926.86 340.99c5.81-.01 8.12 2.22 8.15 7.87.03 5.65-3.25 9.16-8.54 9.14-3.94 0-8.56-5.01-8.47-9.19.09-4.58 3.75-7.81 8.87-7.82zM868.48 277c5.22-.04 9.21 3.26 9.43 7.81.23 4.92-3.9 9.06-9.23 9.23-3.85.12-8.68-4.66-8.69-8.59 0-4.16 4.27-8.41 8.49-8.45zM877.08 313.43c0 5.08-3.2 8.48-8.02 8.57-3.89.07-8.99-4.95-9.05-8.92-.08-5.04 3.6-8.11 9.68-8.08 5.78.03 7.41 1.88 7.4 8.44zM935.01 321.75c.07 5.21-2.79 8.14-8.1 8.3-4.38.13-8.92-4.25-8.91-8.59.01-4.4 4.01-8.39 8.46-8.46 5.92-.08 8.47 2.53 8.55 8.76zM869.4 166.98c5.39-.03 8.38 2.69 8.52 7.77.12 4.4-4.6 9.27-8.97 9.25-3.72-.02-9.08-5.54-8.95-9.21.18-4.92 3.61-7.78 9.4-7.81zM897.93 179.97c5.96-.02 8.09 1.72 8.11 6.62.02 6.44-2.81 10.2-7.85 10.41-3.98.16-9.22-5.25-9.19-9.49.03-4.35 3.79-7.52 8.93-7.54zM906.03 381.51c.06 5.63-3.26 8.59-9.5 8.48-2.95-.05-7.87-5.43-7.46-8.67.57-4.55 2.93-8.79 8.9-8.41 5.92.38 8.01 2.26 8.07 8.6zM906.03 132.58c0 5.55-2.6 8.36-7.84 8.42-4.68.06-9.03-3.86-9.19-8.27-.15-4.25 4.36-8.77 8.83-8.84 5.14-.08 8.2 3.15 8.2 8.68zM906.03 242.94c.02 6.04-3.26 9.18-9.45 9.05-2.85-.06-7.49-5.48-7.58-8.84-.12-4.91 3.48-8.16 9.06-8.15 5.89 0 7.95 2.06 7.97 7.94zM935.01 238.59c.01 5.67-2.68 8.37-8.38 8.41-4.32.03-8.53-4.04-8.63-8.34-.1-4.36 4.4-8.86 8.81-8.81 5.37.06 8.2 3.07 8.21 8.74zM906.02 353.85c-.03 5.6-2.81 8.23-8.63 8.15-4.16-.05-8.42-4.38-8.4-8.54.02-4.26 4.69-8.66 9.11-8.58 5.14.1 7.95 3.27 7.92 8.97zM927.1 119.99c5.67.03 7.92 2.34 7.91 8.1-.01 5.72-3.35 8.73-9.78 8.81-2.79.03-7.2-5.36-7.23-8.83-.04-4.79 3.7-8.11 9.1-8.08zM964.01 112.78c-.03 5.2-3.2 8.4-8.23 8.33-4.49-.06-8.73-4.18-8.78-8.53-.06-4.42 4-8.56 8.41-8.58 5.96-.03 8.64 2.71 8.6 8.78zM935.01 100.82c-.05 5.16-3.31 8.44-8.24 8.28-4.47-.15-8.76-4.35-8.78-8.59-.02-4.61 4.16-8.56 9-8.51 5.53.05 8.08 2.86 8.02 8.82zM964.01 333.86c-.05 5.36-3.24 8.38-8.72 8.25-4.15-.1-8.37-4.55-8.3-8.75.08-4.44 4.12-8.38 8.57-8.36 5.76.03 8.5 2.91 8.45 8.86zM877.07 230.8c.04 5.31-2.93 7.93-9.24 8.17-3.04.11-7.83-5.36-7.83-8.95 0-4.17 4.3-8.03 8.96-8.03 6.32 0 8.05 1.88 8.11 8.81z"/><path class="prefix__cls-8" d="M296.33 293.42c0 6.99-.1 13.99.05 20.97.06 2.76-.99 3.89-3.58 4.97-21.24 8.92-33.77-8.15-33.87-23.71-.06-10.08 2.36-18.9 10.84-25.1 7.72-5.66 16.26-3.92 24.64-2.02.89.2 1.8 2.55 1.84 3.92.19 6.99.09 13.98.09 20.97z"/></g></svg>
